<?xml version="1.0" encoding="utf-8"?>
<!-- Generator: Adobe Illustrator 23.1.1, SVG Export Plug-In . SVG Version: 6.00 Build 0)  -->
<svg version="1.1" xmlns="http://www.w3.org/2000/svg" xmlns:xlink="http://www.w3.org/1999/xlink" x="0px" y="0px"
	 viewBox="0 0 134.24 124.66" style="enable-background:new 0 0 134.24 124.66;" xml:space="preserve">
<style type="text/css">
	.st0{fill:#ED1F25;}
	.st1{fill:#620813;}
	.st2{fill:#EC2327;}
	.st3{fill:#F7F5F0;}
	.st4{fill:#ED2325;}
	.st5{fill:#F4E9D3;}
	.st6{fill:#EA2126;}
	.st7{fill:#F2DDC0;}
	.st8{fill:#F4E9D5;}
	.st9{fill:#EB383C;}
	.st10{fill:#F2DCC0;}
	.st11{fill:#F5EDD9;}
	.st12{fill:#EF5043;}
	.st13{fill:#F9F8F6;}
	.st14{fill:#EC2225;}
	.st15{fill:#EF5D52;}
	.st16{fill:#EC2226;}
	.st17{fill:#F07D73;}
	.st18{fill:#F0DDBC;}
	.st19{fill:#F9F8F5;}
	.st20{fill:#F0DEBE;}
	.st21{fill:#F7EBDC;}
	.st22{fill:#F4A7AB;}
	.st23{fill:#F4B5B9;}
	.st24{fill:#F6EBD7;}
	.st25{fill:#F38481;}
	.st26{fill:#ED2225;}
	.st27{fill:#EBE2D6;}
	.st28{fill:#D9303D;}
	.st29{fill:#F1E3D2;}
	.st30{fill:#E4DCD9;}
	.st31{fill:#D03B38;}
	.st32{fill:#C85354;}
	.st33{fill:#DA2127;}
	.st34{fill:#C22226;}
	.st35{fill:#F4EBD7;}
	.st36{fill:#AF2626;}
	.st37{fill:#EFE0C3;}
	.st38{fill:#A42426;}
	.st39{fill:#FAF9F6;}
	.st40{fill:#EB2025;}
	.st41{fill:#E1939B;}
	.st42{fill:#FCDDE1;}
	.st43{fill:#F7F6F2;}
	.st44{fill:#F7F1E3;}
	.st45{fill:#EEE0C4;}
	.st46{fill:#A93631;}
	.st47{fill:#C32728;}
	.st48{fill:#DD2126;}
	.st49{fill:#B02428;}
	.st50{fill:#F7F5EF;}
	.st51{fill:#F8D9D9;}
	.st52{fill:#F8F3E7;}
	.st53{fill:#CD2227;}
	.st54{fill:#E12026;}
	.st55{fill:#D83438;}
	.st56{fill:#E02126;}
	.st57{fill:#F8F7F3;}
	.st58{fill:#E82126;}
	.st59{fill:#DA4553;}
	.st60{fill:#F7AAB5;}
</style>
<g id="candy_cottage">
	<g>
		<path class="st0" d="M20.18,47.68c0.36-0.63,0.5-1.13,0.51-1.72c0.07-0.66,0.08-1.16-0.17-1.6c-0.21-0.41-0.24-0.7-0.39-1.11
			c-0.05-0.24-0.14-0.59-0.06-0.73c0.15-0.26,1.03,0.02,1.24,0.14c0.29,0.17,0.4,0.31,0.46,0.55c0.08,0.5,0.17,1.35,0.1,1.96
			c-0.1,0.56-0.39,1.71-0.49,2.18c-0.03,0.15-0.13,0.33-0.23,0.51c-0.24,0.43-0.57,0.91-0.88,1.45c-0.32,0.57-0.71,0.67-1.13,1.21
			c-0.38,0.53-0.8,0.73-1.38,1.17c-0.49,0.34-1.26,0.92-2.97,0.96c-1.2,0.07-1.96,0.01-2.75-0.22c-1.24-0.38-1.59,0.17-2.21-0.19
			c-0.35-0.2-0.39-0.78-0.85-1.23c-0.3-0.3-0.21-0.25-0.65-0.75c-0.6-0.69-0.65-1.04-1.2-1.54c-0.55-0.5-0.78-0.95-0.98-1.73
			c-0.2-0.76-0.39-1.75-0.43-2.49c-0.08-0.74,0.22-1.85,0.4-2.56c0.12-0.41,0.35-0.95,0.62-1.44c0.2-0.34,0.41-0.62,0.59-0.84
			c0.21-0.23,0.35-0.47,0.5-0.73c0.14-0.24,0.3-0.47,0.51-0.65c0.4-0.31,0.48-0.45,0.91-0.69c0.56-0.35,1.33-0.64,1.6-0.48
			c0.02,0.01,0.06,0.04,0.07,0.07c0.19,0.3,0.49,0.98,0.37,1.2c-0.11,0.2-0.19,0.05-0.75,0.25c-0.52,0.19-0.77-0.01-1.15,0.28
			C8.85,39.3,8.88,39.4,8.3,39.84c-0.37,0.35-0.55,0.63-0.77,1.01c-0.03,0.06-0.16,0.23-0.29,0.45c-0.24,0.43-0.51,1-0.4,1.43
			c0.02,0.36-0.2,0.74,0.1,1.23c0.27,0.5,0.3,1.03,1.03,1.44c0.73,0.41,1,0.81,1.5,1.09c0.48,0.27,1.29,0.54,1.92,0.9
			c0.48,0.27,0.68-0.23,1.27,0.1c0.1,0.06,0.42,1.07,0.53,1.1c0.79,0.31,1.02,0.58,2.11,0.95c0.95,0.32,1.62,0.3,2.09,0.41
			c0.47,0.05,1.1-0.29,1.51-0.62C19.36,48.9,19.84,48.19,20.18,47.68z M9.96,48.73c-0.08-0.1-0.17-0.23-0.18-0.5
			c-0.01-0.17-0.11-0.3-0.19-0.3c-0.12,0.01-0.38-0.06-0.55-0.15c-0.15-0.03-0.11-0.01-0.4-0.22c-0.29-0.27-0.34-0.22-0.46-0.37
			c-0.17-0.15-0.3-0.2-0.43-0.41c-0.16-0.2-0.42-0.08-0.34,0.07c0.09,0.13,0.17,0.18,0.38,0.4c0.2,0.22,0.26,0.28,0.35,0.41
			c0.05,0.16,0.33,0.54,0.4,0.71c0.03,0.15,0.02,0.41,0.08,0.5c0.17,0.15,0.24,0.06,0.62,0.22c0.28,0.13,0.38,0.16,0.45,0.18
			c0.1,0.03,0.19,0.16,0.35,0.01C10.11,49.2,10.04,49.02,9.96,48.73z M10.91,50.56c0.07,0.17,0.18,0.07,0.35,0.06
			c0.22-0.04,0.41-0.09,0.58-0.15c0.19-0.08,0.11-0.23,0.05-0.48c0,0-0.16-0.2-0.14-0.53c-0.03-0.1-0.23-0.08-0.47,0
			c-0.24,0.03-0.36,0.09-0.47,0.11c-0.1,0.03-0.3,0.18-0.18,0.32C10.74,50.03,10.78,50.35,10.91,50.56z M13.05,51.02
			c0.1,0.06,0.25,0.09,0.44,0.3c0.16,0.11,0.26,0.12,0.31,0.12c0.11-0.05,0.38-0.19,0.51-0.22c0.16-0.04,0.12-0.07,0.45-0.07
			c0.38,0.06,0.42,0,0.61,0c0.17,0.04,0.35,0.01,0.58,0.09c0.18,0.02,0.35-0.18,0.19-0.24c-0.13-0.1-0.23-0.08-0.49-0.12
			c-0.33-0.05-0.42-0.08-0.61-0.13c-0.11-0.09-0.53-0.19-0.68-0.31c-0.16-0.11-0.27-0.34-0.38-0.35c-0.26-0.07-0.26,0.07-0.61,0.19
			c-0.32,0.08-0.41,0.09-0.5,0.15c-0.08,0.04-0.23-0.03-0.26,0.17C12.6,50.74,12.79,50.85,13.05,51.02z"/>
		<path class="st1" d="M19.93,40.44c-2.27-2.07-2.44-5.12-0.4-7.35c2.04-2.23,5.04-2.35,7.34-0.25l3.6,3.29l-0.81,0.89l-1.8-1.64
			c0.84,1.69,0.46,3.49-0.8,4.86C25.25,42.23,22.26,42.56,19.93,40.44z M25.96,33.76c-1.68-1.54-3.96-1.52-5.51,0.16
			s-1.35,3.96,0.33,5.5c1.68,1.54,3.96,1.52,5.51-0.16S27.64,35.3,25.96,33.76z"/>
		<path class="st1" d="M28.38,31.15c-1.93-2.64-1.4-5.13,0.88-6.8s4.82-1.42,6.75,1.22l3.04,4.16L38,30.49l-3.04-4.16
			c-1.44-1.97-3.3-2.21-4.97-0.99c-1.67,1.22-2,3.07-0.56,5.04l3.04,4.16l-1.05,0.77L28.38,31.15z"/>
		<path class="st1" d="M37.71,24.7c-1.27-2.76-0.2-5.58,2.35-6.75c1.65-0.76,3.38-0.59,4.65,0.47l-2.69-5.84l1.18-0.54l3.84,8.35
			c1.33,2.88,0.24,5.67-2.45,6.91C41.83,28.56,38.98,27.46,37.71,24.7z M45.89,20.98c-0.95-2.07-3.04-2.95-5.14-1.99
			c-2.08,0.96-2.78,3.13-1.83,5.2s3.06,2.94,5.14,1.99C46.15,25.21,46.84,23.05,45.89,20.98z"/>
		<path class="st1" d="M50.67,25.77l1.26-0.29c0.79,1.19,2.09,1.56,3.64,1.2c2-0.47,3.16-1.8,2.58-4.31l-0.38-1.61
			c-0.34,1.54-1.41,2.56-3.04,2.94c-2.49,0.58-4.78-0.53-5.54-3.82l-1.15-4.96l1.26-0.29l1.15,4.96c0.55,2.37,2.17,3.33,4.19,2.86
			c2-0.47,3.04-2.06,2.5-4.42L56,13.07l1.26-0.29l2.15,9.26c0.78,3.35-0.96,5.19-3.57,5.79C53.73,28.32,51.74,27.72,50.67,25.77z"/>
		<path class="st2" d="M74.05,21.59c0.72,0.06,1.24-0.02,1.77-0.26c0.62-0.21,1.08-0.42,1.38-0.82c0.29-0.36,0.53-0.51,0.84-0.82
			c0.2-0.15,0.47-0.37,0.64-0.36c0.3,0.03,0.41,0.95,0.39,1.19c-0.03,0.33-0.11,0.5-0.31,0.65c-0.42,0.28-1.16,0.72-1.73,0.91
			c-0.55,0.15-1.71,0.36-2.19,0.47c-0.14,0.04-0.35,0.02-0.56,0c-0.49-0.04-1.06-0.14-1.69-0.19c-0.65-0.05-0.9-0.36-1.57-0.52
			c-0.64-0.13-0.99-0.42-1.64-0.76c-0.51-0.31-1.36-0.76-2.12-2.3c-0.57-1.06-0.83-1.78-0.95-2.58c-0.17-1.29-0.82-1.37-0.76-2.09
			c0.03-0.41,0.55-0.68,0.76-1.28c0.15-0.4,0.14-0.3,0.4-0.91c0.37-0.84,0.67-1.03,0.89-1.73c0.22-0.7,0.54-1.11,1.16-1.61
			c0.6-0.5,1.42-1.09,2.08-1.44c0.64-0.38,1.78-0.57,2.49-0.71c0.43-0.06,1.01-0.08,1.57-0.04c0.39,0.03,0.74,0.11,1.01,0.18
			c0.29,0.1,0.57,0.12,0.88,0.15c0.28,0.02,0.55,0.07,0.8,0.19c0.45,0.23,0.61,0.24,1.01,0.54c0.55,0.36,1.14,0.94,1.11,1.25
			c0,0.02-0.01,0.07-0.03,0.09c-0.19,0.3-0.68,0.86-0.93,0.84c-0.23-0.02-0.13-0.16-0.54-0.57c-0.39-0.39-0.31-0.7-0.74-0.93
			c-0.56-0.34-0.63-0.27-1.28-0.61c-0.47-0.18-0.8-0.24-1.24-0.27c-0.07-0.01-0.28-0.05-0.53-0.07c-0.49-0.04-1.12-0.05-1.47,0.24
			c-0.32,0.17-0.76,0.13-1.08,0.61c-0.34,0.45-0.81,0.7-0.88,1.54c-0.07,0.84-0.31,1.25-0.36,1.82c-0.05,0.55,0.05,1.4-0.01,2.12
			c-0.05,0.55,0.49,0.52,0.44,1.19c-0.01,0.12-0.79,0.82-0.78,0.95c0.05,0.85-0.1,1.17,0.02,2.31c0.1,1,0.4,1.6,0.5,2.06
			c0.15,0.45,0.72,0.88,1.19,1.11C72.6,21.35,73.45,21.49,74.05,21.59z M67.55,14.38c-0.13,0.13,0.01,0.19,0.09,0.34
			c0.12,0.18,0.25,0.33,0.38,0.47c0.15,0.13,0.26,0,0.46-0.15c0,0,0.11-0.23,0.43-0.35c0.08-0.07-0.03-0.24-0.2-0.43
			c-0.12-0.2-0.23-0.28-0.29-0.39c-0.06-0.08-0.29-0.19-0.37-0.03C67.96,14,67.69,14.17,67.55,14.38z M68.03,16.51
			c-0.01,0.12,0.02,0.27-0.09,0.52c-0.04,0.19,0,0.29,0.02,0.34c0.09,0.08,0.33,0.27,0.41,0.37c0.11,0.13,0.11,0.08,0.25,0.38
			c0.11,0.37,0.18,0.38,0.26,0.55c0.03,0.17,0.14,0.32,0.16,0.57c0.06,0.17,0.31,0.24,0.3,0.07c0.04-0.17-0.03-0.24-0.1-0.49
			c-0.09-0.32-0.11-0.42-0.14-0.61c0.04-0.14-0.05-0.56-0.01-0.75c0.04-0.19,0.2-0.39,0.16-0.49c-0.05-0.27-0.17-0.21-0.43-0.47
			c-0.21-0.26-0.25-0.33-0.34-0.39c-0.07-0.05-0.08-0.22-0.27-0.17C68.1,15.99,68.08,16.21,68.03,16.51z M68.81,12.75
			c0.06-0.12,0.14-0.25,0.38-0.38c0.15-0.08,0.23-0.22,0.19-0.3c-0.06-0.1-0.11-0.37-0.09-0.56c-0.03-0.15-0.04-0.1,0.04-0.45
			c0.12-0.37,0.06-0.4,0.14-0.57c0.06-0.21,0.05-0.36,0.19-0.56c0.11-0.23-0.11-0.42-0.21-0.28c-0.08,0.14-0.09,0.23-0.21,0.51
			c-0.12,0.28-0.15,0.35-0.23,0.49c-0.13,0.11-0.35,0.52-0.48,0.66c-0.12,0.09-0.37,0.19-0.42,0.28c-0.06,0.21,0.05,0.25,0.06,0.66
			c0,0.31,0.01,0.41,0.03,0.48c0.02,0.1-0.07,0.24,0.14,0.32C68.46,13.08,68.58,12.95,68.81,12.75z"/>
		<path class="st1" d="M80.57,18.29c0.91-2.86,3.6-4.31,6.48-3.39c2.88,0.91,4.25,3.65,3.34,6.51s-3.6,4.31-6.48,3.39
			S79.66,21.15,80.57,18.29z M89.13,21.01c0.69-2.17-0.28-4.24-2.46-4.93s-4.16,0.44-4.85,2.61c-0.69,2.17,0.28,4.24,2.46,4.93
			C86.46,24.31,88.44,23.18,89.13,21.01z"/>
		<path class="st1" d="M91.39,23.37l4.53-8.6l1.15,0.61l-1.63,3.09l4.99,2.63l-0.57,1.08l-4.99-2.63l-2.34,4.44
			c-0.84,1.59-0.38,2.8,0.94,3.5c1.3,0.69,2.57,0.41,3.42-1.2l0.1-0.19l1.11,0.59l-0.1,0.19c-1.21,2.3-3.15,2.74-5.11,1.71
			C90.93,27.53,90.18,25.67,91.39,23.37z"/>
		<path class="st1" d="M99.4,27.77l5.82-7.8l1.04,0.78l-2.09,2.8l4.52,3.37l-0.73,0.98l-4.52-3.37l-3,4.02
			c-1.08,1.44-0.81,2.71,0.38,3.6c1.18,0.88,2.47,0.8,3.56-0.66l0.13-0.18l1.01,0.75l-0.13,0.18c-1.55,2.08-3.54,2.22-5.31,0.89
			C98.3,31.8,97.85,29.85,99.4,27.77z"/>
		<path class="st1" d="M107.37,32.18c2.25-2.1,5.3-2.02,7.36,0.19c2.06,2.21,1.94,5.21-0.34,7.34l-3.57,3.32L110,42.15l1.78-1.66
			c-1.75,0.7-3.52,0.18-4.79-1.18C105.16,37.34,105.06,34.33,107.37,32.18z M113.55,38.72c1.67-1.55,1.84-3.83,0.28-5.5
			c-1.56-1.67-3.84-1.66-5.51-0.11c-1.67,1.55-1.84,3.83-0.28,5.5C109.6,40.28,111.88,40.27,113.55,38.72z"/>
		<path class="st1" d="M110.47,44.7l0.69,1.12c-0.92,1.17-0.74,2.63,0.11,4.02c1.15,1.89,2.94,2.63,5.43,1.12l1.23-0.75
			c-1.7,0.17-3.2-0.64-4.14-2.19c-1.4-2.3-0.94-5.23,1.8-6.9c2.56-1.56,5.54-0.88,7.12,1.7c1.57,2.58,0.87,5.48-1.81,7.12
			l-3.46,2.11c-3.26,1.98-5.68,0.85-7.16-1.58C109.05,48.49,108.93,46.41,110.47,44.7z M120.26,48.79c1.94-1.18,2.57-3.38,1.38-5.33
			c-1.19-1.95-3.43-2.4-5.37-1.22c-1.95,1.18-2.52,3.35-1.33,5.3C116.12,49.49,118.31,49.97,120.26,48.79z"/>
		<path class="st1" d="M121.75,51.56c2.82-1.02,5.61,0.24,6.64,3.08c1.03,2.84-0.33,5.56-3.14,6.58l-0.41,0.15l-3.04-8.4
			c-1.88,0.86-2.74,2.76-2.01,4.78c0.51,1.42,1.51,2.3,2.79,2.49l0.48,1.33c-1.96-0.07-3.68-1.31-4.44-3.4
			C117.59,55.33,118.93,52.58,121.75,51.56z M125.5,59.69c1.77-0.97,2.39-2.8,1.73-4.62c-0.68-1.88-2.37-2.85-4.29-2.47L125.5,59.69
			z"/>
	</g>
</g>
<g id="circle">
	<g>
		<circle class="st3" cx="68.17" cy="76.35" r="43.62"/>
	</g>
</g>
<g id="candy">
	<g>
		<path class="st4" d="M61.63,34.68c2.87-0.19,5.72-0.95,8.62-0.39c0.4,2.39-0.22,4.67-0.71,6.97c-2.84,1.03-5.87,0.89-8.8,1.36
			c-1.36,0.22-2.72,1.01-4.17,0.4c-0.54-0.31-0.94-0.75-1.26-1.27c-0.17-0.31-0.27-0.65-0.35-0.99c-0.22-1.31-1.19-2.56-0.39-3.97
			c1.5-1.5,3.48-1.58,5.4-1.87C60.52,34.84,61.13,35.1,61.63,34.68z"/>
		<path class="st5" d="M98.74,48.45c1.65,1.66,2.72,3.76,4.3,5.5c1.49,1.65,2.05,3.89,2.95,5.91c0.38,0.85,0.73,1.71,1.1,2.56
			c-0.54,0.98-1.63,0.9-2.48,1.29c-1.19,0.42-2.26,1.18-3.57,1.22c-0.21-0.03-0.4-0.11-0.57-0.24c-0.68-4.94-3.61-8.49-7.21-11.61
			c-0.31-0.41-0.11-0.77,0.1-1.14c0.88-1.13,2.15-1.81,3.2-2.73C97.26,48.87,97.82,48.12,98.74,48.45z"/>
		<path class="st6" d="M103.12,92.55c0,0.12,0.05,0.21,0.14,0.27c0.49,0.95,0.2,1.82-0.32,2.63c-1.64,2.6-3.18,5.27-5.01,7.74
			c-0.79,1.07-1.53,2.32-3.19,2.14c-1.45-0.61-2.13-1.97-3.05-3.11c-0.24-0.35-0.43-0.72-0.35-1.17c1.16-1.51,2.3-3.05,3.5-4.54
			c2.06-1.33,2.53-3.8,3.99-5.56c0.3-0.15,0.61-0.17,0.93-0.13C100.95,91.27,102.29,91.42,103.12,92.55z"/>
		<path class="st7" d="M69.35,41.17c0.1-2.32,0.14-4.65,0.9-6.88c5.54,0.61,10.85,2.09,15.96,4.31c0.43,0.69-0.22,1.11-0.39,1.66
			c-0.52,0.7-0.55,1.86-1.77,1.91c-3.17-0.53-6.11-1.87-9.22-2.65c-1.3-0.32-2.59-0.09-3.82,0.06c-1.41,0.17-0.29,1.54-0.62,2.29
			c-0.06,0.6-0.09,1.2-0.67,1.57C68.6,42.86,68.87,42.03,69.35,41.17z"/>
		<path class="st8" d="M103.12,92.55c-1.18-0.37-2.37-0.7-3.4-1.42c0.52-1.74,0.47-3.61,1.19-5.28c0.54-1.25,0.95-2.52,1.31-3.84
			c0.55-2.02,0.27-3.56-1.73-4.53c0.47-0.92,1.36-0.77,2.16-0.83c0.84-0.01,1.69-0.03,2.51,0.21c0.47,0.17,0.88,0.42,1.07,0.91
			C105.97,82.85,105.2,87.84,103.12,92.55z"/>
		<path class="st9" d="M85.52,39.92c0.23-0.44,0.46-0.88,0.69-1.32c1.29-0.15,2.29,0.64,3.24,1.25c3.1,1.98,6.11,4.12,8.65,6.83
			c0.47,0.5,1.18,0.91,0.64,1.77c-0.67,0.37-1.33,0.74-2,1.1c-3.13-2.21-5.59-5.26-9.05-7.07C86.71,41.97,85.83,41.12,85.52,39.92z"
			/>
		<path class="st3" d="M55.59,41.52c0.27,0.32,0.55,0.64,0.82,0.97c0.73,1,1.55,1.94,2.13,3.04c2.61,4.69,6.63,8.07,10.67,11.41
			c1.51,1.25,2.93,2.51,4.05,4.13c2.43,3.49,2.61,7.04,0.42,10.7c-0.6,0.8-1.07,1.76-2.25,1.86c-1.31-0.21-0.79-1.31-0.99-2.06
			c-0.25-0.91-0.28-1.85-0.36-2.77c-0.08-7.07-4.74-10.13-10.59-12.18c-2.86-1-5.91-1.22-8.76-2.26c-0.81-0.3-1.66-0.49-2.21-1.24
			c-0.06-1.53,0.2-3.12-1.66-4.02c-0.87-0.42-0.5-1.28,0.17-1.75c1.36-0.94,2.55-2.11,4-2.94c1.05-0.6,2.49-0.63,2.82-2.28
			C53.95,41.55,54.99,41.75,55.59,41.52z"/>
		<path class="st10" d="M54.7,36.95c-0.22,1.38,0.69,2.52,0.79,3.83c-1.01,1.07-1.98,2.18-3.72,1.68c-0.43-0.12-0.89,0.12-1.17,0.45
			c-1.53,1.77-3.69,2.42-5.71,3.32c-0.96,0.43-1.55,1.27-2.27,1.97c-1.48,0.02-1.95-1.1-2.45-2.18c1.22-2.35,3.56-3.5,5.53-5
			c2.29-1.74,5.15-2.55,7.59-4.1c0.31-0.19,0.79-0.42,1.2-0.06C54.55,36.9,54.62,36.93,54.7,36.95z"/>
		<path class="st11" d="M42.46,48.27c0.06-1.56,1.29-2.1,2.41-2.69c1.7-0.89,3.7-1.14,5.01-2.88c0.43-0.57,1.36-1.57,2.76-0.66
			c1,0.65,1.76-1.08,2.85-1.27c0.03,0.25,0.07,0.5,0.1,0.75c-0.1,0.4-0.07,0.92-0.73,0.81c-0.21-0.03-0.42-0.07-0.63-0.11
			c0.42,2.28-1.74,1.76-2.73,2.5c-1.2,0.9-2.39,1.81-3.65,2.61c-1.24,0.78-1.71,1.14,0.11,1.9c1.71,0.71,1.28,2.27,0.64,3.64
			c-0.23,0.31-0.56,0.44-0.93,0.41C45.93,53.1,42.89,50.17,42.46,48.27z"/>
		<path class="st12" d="M58.08,45.62c-0.67-0.98-1.37-1.95-1.67-3.13c0.44,0.21,0.83,0.38,1.4,0.23c3.77-1.03,7.64-1.4,11.54-1.54
			c0.17,0.74-0.08,1.56,0.43,2.24c0.57,0.57,0.53,1.18,0.1,1.8c-1.11,0.63-2.26,0.1-3.39,0.1C63.68,45.31,60.88,45.24,58.08,45.62z"
			/>
		<path class="st13" d="M93.3,52.92c1.83-0.68,1.84,1.38,2.57,2.03c2.78,2.48,4.94,5.54,4.74,9.63c-0.52,1.83-2.02,2.28-3.61,2.61
			c-2.29,0.01-3.63,1.25-4.31,3.34c-2.86,3.81-6.05,7.37-9.5,10.58c-3.14,2.93-8.24,3.41-12.23-0.09c-0.31-0.35-0.53-0.74-0.61-1.2
			c-0.05-0.83,0.17-1.59,0.69-2.24c0.19-0.13,0.4-0.2,0.63-0.22c2.99,0.42,5.95,0.72,8.85-0.64c2.67-1.25,4.21-3.51,5.28-6.01
			c1.45-3.35,2.83-6.76,3.43-10.41c0.18-1.07,0.54-2.09,0.97-3.08c0.46-1.03,0.78-2.12,1.44-3.04
			C92.05,53.62,92.25,52.68,93.3,52.92z"/>
		<path class="st14" d="M85.52,39.92c2.15,2.18,5.06,3.41,7.23,5.49c1.37,1.31,3.11,2.34,4,4.14c-0.62,1.29-2.24,1.39-3,2.53
			c-0.91,0.52-1.54-0.07-2.06-0.64c-1.91-2.12-4.4-3.43-6.73-4.96c-0.87-0.58-1.65-1.15-1.73-2.3c0.01-0.84,0.13-1.63,0.97-2.07
			C84.63,41.38,85.07,40.65,85.52,39.92z"/>
		<path class="st15" d="M83.65,44.16c0.26,2.05,2.32,2.1,3.54,3.04c1.73,1.34,3.67,2.41,5.1,4.13c0.38,0.45,0.84,0.77,1.47,0.75
			c-0.15,0.28-0.3,0.56-0.44,0.84c-1.43,1.12-1.81,2.89-2.65,4.37c-2.33-3.1-5.55-5.18-8.53-7.55c-0.29-0.66-0.25-1.33-0.11-2.01
			C82.57,46.55,82.14,44.91,83.65,44.16z"/>
		<path class="st16" d="M106.58,77.17c-0.41,0.05-0.83,0.1-1.24,0.14c-0.83-0.04-1.67-0.08-2.5-0.13c-0.75-0.65-0.69-1.55-0.68-2.4
			c0.01-1.39-0.23-2.72-0.67-4.03c-0.26-1.32-0.54-2.63-0.83-3.94c-0.17-0.78-0.15-1.55,0.43-2.19c1.04-0.69,2.23-0.99,3.41-1.3
			C106.27,67.78,106.85,72.41,106.58,77.17z"/>
		<path class="st17" d="M101.08,64.63c-0.34,2.11,1.02,3.98,0.88,6.06c-1.85,0.56-2.54,1.93-2.38,4.83c0.06,1.01,0.25,2.03-0.79,2.7
			c-0.24,0.02-0.44-0.07-0.58-0.27c-0.41-0.73-0.4-1.54-0.35-2.32c0.17-2.78-0.35-5.44-1.28-8.05c-0.04-0.25,0.01-0.48,0.16-0.68
			c1.59-0.29,2.7-1.38,3.89-2.33C100.77,64.6,100.93,64.62,101.08,64.63z"/>
		<path class="st18" d="M65.48,117.59c-0.14,0.03-0.28,0.07-0.41,0.13c-0.89-0.21-1.87,0.14-2.68-0.49
			c-3.53-0.94-7.14-1.59-10.49-3.13c-0.72-0.33-1.47-0.61-1.96-1.29c-0.12-0.18-0.19-0.38-0.23-0.6c0.46-1.28,0.41-2.87,2.07-3.42
			c2.64,1.81,5.68,2.77,8.58,4.02c1.79,0.77,3.72,0.02,5.57,0.35c0.27,0.24,0.4,0.55,0.47,0.89c0.16,1.06-0.16,2.04-0.48,3.02
			C65.82,117.29,65.68,117.46,65.48,117.59z"/>
		<path class="st19" d="M98.44,78.13c0.15,0.04,0.28,0.02,0.41-0.07c0.53-0.4,1.03-0.96,1.79-0.42c2.44,0.16,2.77,0.69,2.35,3.1
			c-0.38,2.21-1.32,4.22-1.94,6.29c-0.4,1.35-0.45,2.85-1.32,4.1c-0.26,0.01-0.52,0.03-0.79,0.04c-1.46,0.36-2.79-0.48-4.21-0.46
			c-4.47-1.16-9.01-0.72-13.52-0.52c-1.36,0.06-2.72,0.17-4.08,0.27c-6.07,0.44-11.09-3.4-11.32-10.26
			c-0.01-0.72,0.13-1.4,0.48-2.03c0.54-0.93,0.98-2.16,2.33-0.85c0.29,0.3,0.49,0.66,0.59,1.07c0.19,1.12,0.88,1.98,1.53,2.85
			c3.71,5.91,10.34,5.16,15.15,3.03c2.57-1.14,4.94-2.6,7.28-4.15C94.74,79.08,96.39,78.02,98.44,78.13z"/>
		<path class="st20" d="M82.49,115.09c-0.38,0.41-0.87,0.42-1.38,0.37c-0.19-0.12-0.34-0.28-0.45-0.47
			c-0.45-1.54-1.25-3.01-1.04-4.71c0.18-0.23,0.43-0.47,0.71-0.43c3.97,0.51,6.23-2.47,9.01-4.4c0.23-0.16,0.38-0.41,0.64-0.56
			c0.55-0.31,0.94,0.76,1.24,0.3c0.33-0.5,0.07-1.25,0.03-1.9c-0.03-0.53,0.19-0.98,0.71-1.22c1.12,0.79,1.76,2,2.59,3.05
			c0.12,0.25,0.25,0.5,0.37,0.75c-3.4,3.54-6.92,6.91-11.73,8.49C82.84,114.46,82.58,114.7,82.49,115.09z"/>
		<path class="st21" d="M91.97,102.06c-0.79,1.04,0.53,2.27-0.31,3.34c-0.24,0.3,0.97,0.78,0.05,1.14c-0.69,0.27-0.68-0.56-1-0.88
			c-0.15-0.15-0.28-0.3-0.63-0.69c-0.08,2.13-2.12,2.01-3.17,3.09c-0.93,0.95-2.55,1.34-3.49,2.58c-0.41,0.54-0.82,0.12-1.26-0.18
			c-0.69-0.47-1.53-0.18-2.31-0.23c-0.85-0.29-1.13-0.91-0.98-1.76c1.66-0.68,3.32-1.44,4.87-2.3c2.61-1.46,6.01-2.09,6.97-5.63
			c0.46-0.09,0.85-0.07,0.82,0.56C91.68,101.42,91.82,101.74,91.97,102.06z"/>
		<path class="st22" d="M94.89,90.25c1.46-0.17,2.76,0.34,4.05,0.92c-1.05,2.08-1.69,4.44-3.89,5.75c-0.91-0.87-1.97-1.41-3.25-1.46
			C91.85,93.14,93.6,91.83,94.89,90.25z"/>
		<path class="st23" d="M91.77,95.39c1.68-0.76,2.78-0.28,3.28,1.52c-0.97,1.56-2.08,3.01-3.52,4.18c-0.21-0.32-0.53-0.44-0.9-0.43
			c-1.09-0.46-2.42-0.47-3.16-1.62C88.94,97.87,89.84,96.02,91.77,95.39z"/>
		<path class="st13" d="M82.46,47.85c-0.05,0.68-0.1,1.35-0.14,2.03c0.32,1.72-0.33,3.35-0.49,5.03c-0.16,1.64-0.04,3.27-0.12,4.9
			c0.19,2.22-0.52,4.51,0.49,6.66c0.34,0.48,0.55,1,0.57,1.6c0.13,4.1-4,8.59-8.16,8.88c-0.64-0.02-1.28,0.02-1.91-0.07
			c-1.42-0.2-2.13-0.82-1.25-2.3c1.08-1.25,2.66-1.86,3.8-3.02c3.83-4.22,2.91-8.89,1.23-13.59c-0.86-2.39-2.64-4.27-3.88-6.46
			c-1.15-2.04-2.67-3.95-2.63-6.49c-0.06-0.54-0.12-1.08-0.17-1.61c0.02-0.59,0.05-1.18,0.07-1.77c2.34-1.74,4.78-0.81,7.18-0.23
			c0.83,0.2,1.57,0.71,2.36,1.06C82.91,44.01,82.91,44.01,82.46,47.85z"/>
		<path class="st24" d="M82.46,47.85c-0.18-3.77-0.9-4.58-5.94-6.05c-2.17-0.63-4.43-0.76-6.67-0.15c0.08-0.91-0.23-2.62,0.25-2.58
			c1.58,0.13,3.07-0.47,4.65-0.2c2.97,0.51,5.53,2.59,8.73,2.25c0.2-0.02,0.48,0.65,0.72,1c-0.18,0.68-0.36,1.37-0.54,2.05
			C83.25,45.39,82.86,46.62,82.46,47.85z"/>
		<path class="st25" d="M100.63,77.63c-0.6,0.14-1.19,0.28-1.79,0.42c0.71-1.84,0.58-3.98,0.5-5.68c-0.14-3.12,1.34-1.8,2.61-1.68
			c1.3,2.03,0.61,4.33,0.88,6.5C102.1,77.32,101.27,77,100.63,77.63z"/>
		<path class="st0" d="M39.98,45.97c0.13,0.02,0.25,0.04,0.38,0.07c0.7,0.75,1.4,1.49,2.1,2.24c1.02,1.96,3.07,2.87,4.51,4.41
			c0.4,0.43,1.07,0.24,1.63,0.19c2.65,1.6,5.71,1.88,8.61,2.51c4.35,0.94,8.03,2.95,11.13,6.04c1.91,1.9,1.96,4.52,2.29,7
			c-0.62,1.19,0.68,2.95-1.14,3.78c-0.75-0.05-0.88-0.62-1.01-1.2c-1.58-6.54-2.77-7.64-9.39-8.72c-0.14-0.02-0.28-0.04-0.43-0.06
			c-2.01,0.11-4.06-0.44-6.01,0.45c-2.38,0.76-4.82,0.39-7.23,0.34c-1.25-0.41-2.66-0.23-3.81-1.02c-0.97-1.01-2.23-0.62-3.4-0.7
			c-1.01-0.01-1.99-0.23-2.93-0.6c-1.05-0.57-2.25-0.82-3.26-1.48c-0.76-0.67-0.85-1.5-0.44-2.35c1.97-4.03,4.68-7.52,7.79-10.71
			C39.52,46.02,39.76,45.99,39.98,45.97z"/>
		<path class="st26" d="M69.96,45.02c1.63,4.72,5.24,8.36,7.08,12.93c1.87,4.64,2.38,9.37-1.07,13.68c-0.13,0.16-0.32,0.27-0.48,0.4
			c-0.48,0.27-1.03,0.38-1.55,0.47c-0.76,0.12-1-0.25-0.64-0.96c3.46-6.5-0.15-10.82-4.79-14.5c-4.07-3.22-8.02-6.63-10.41-11.42
			c0.68-0.93,1.67-0.96,2.7-0.95C63.84,44.7,66.91,44.53,69.96,45.02z"/>
		<path class="st27" d="M69.4,72.11c1.32-0.92,0.48-2.57,1.23-3.69c0.29,1.64-0.16,3.42,0.95,4.91c0.23,0.37-0.02,0.87,0.31,1.22
			c-0.72,1.27-0.48,1.93,1.1,1.81c0.56-0.04,1.12,0.03,1.68,0.06c-0.2,0.95-1,0.82-1.67,0.93c-1.22-0.15-2.49,0.01-3.66-0.54
			c-0.21-0.09-0.39-0.22-0.55-0.37c-0.43-0.53-0.66-1.13-0.61-1.83C68.41,73.7,68.68,72.8,69.4,72.11z"/>
		<path class="st28" d="M71.88,74.55c-0.36-0.06-0.94,0.36-1.03-0.11c-0.06-0.31,0.46-0.74,0.73-1.11c0.57-0.6,1.14-1.2,1.71-1.79
			c0.47,1.32,1.53,0.05,2.2,0.49C74.28,72.87,73.08,73.71,71.88,74.55z"/>
		<path class="st26" d="M98.44,78.13c-4.85,1.94-8.8,5.61-13.79,7.27c-5.39,1.79-10.52,1.45-13.84-3.01
			c-0.25-0.34-0.4-0.75-0.6-1.12c-0.06-0.82,0.37-0.83,0.95-0.58c4.84,3.76,10.4,2.33,13.95-2.23c2.24-2.88,4.84-5.47,7.27-8.19
			c1.11-1.46,2.28-2.84,4.31-2.97c1.43,1.62,1.51,3.67,1.7,5.64C98.55,74.65,98.43,76.39,98.44,78.13z"/>
		<path class="st26" d="M72.89,76.85c0.59-0.16,1.27,0.06,1.78-0.43c4.39-0.23,8.06-5.02,7.33-9.57c-0.83-1.09-0.34-2.36-0.46-3.55
			c-0.13-1.2,0.28-2.45-0.4-3.58c-0.09-3.34-0.15-6.67,1.18-9.84c0.63-0.08,1.15,0.24,1.59,0.58c1.87,1.43,3.73,2.88,5.51,4.42
			c0.69,0.59,1.33,1.35,1.23,2.42c-1.09,3.5-1.65,7.16-3.07,10.57c-0.74,1.79-1.46,3.56-2.4,5.27c-2.78,5.06-8.91,6.13-13.47,4.51
			C71.55,76.58,72.61,77.3,72.89,76.85z"/>
		<path class="st29" d="M96.69,67.29c-1.44,0.99-2.88,1.98-4.31,2.97c0.45-2.22,2.13-3.52,4.34-3.35
			C96.7,67.04,96.69,67.16,96.69,67.29z"/>
		<path class="st30" d="M68.97,78.47c-0.15-0.27-0.29-0.54-0.44-0.81c-0.31-0.58-0.53-1.13,0.43-1.29l-0.01-0.01
			c0.63,0.62,1.93,0.13,2.19,1.34c-0.15,0.73-0.31,1.46-0.46,2.19C69.6,80.02,69.33,79.18,68.97,78.47z"/>
		<path class="st31" d="M68.97,78.47c0.57,0.47,1.14,0.95,1.7,1.42c0.16,0.27,0.33,0.53,0.49,0.8c-0.4,0.06-0.78,0.15-0.95,0.58
			C69.58,80.42,68.67,79.71,68.97,78.47z"/>
		<path class="st32" d="M71.14,77.69c-0.53-0.78-1.71-0.49-2.19-1.34c1.31,0.17,2.63,0.33,3.94,0.5c-0.4,0.27-0.79,0.54-1.18,0.8
			C71.51,77.67,71.33,77.68,71.14,77.69z"/>
		<path class="st33" d="M81.02,114.97c-1.06,0.32-2.1,0.67-2.99,1.36c-0.2,0.2-0.39,0.55-0.61,0.58c-3.56,0.38-7.13,0.37-10.7,0.28
			c-1.04-0.83-0.32-2.06-0.7-3.03c-0.03-0.3-0.06-0.59-0.09-0.89c-0.6-0.62-0.55-1.35-0.35-2.11c0.23-0.61,0.61-1.09,1.24-1.33
			c3.99,0.03,7.85-0.98,11.77-1.45c0.11,0.06,0.21,0.12,0.31,0.19c0.31,0.55,0.62,1.11,0.93,1.66
			C80.17,111.83,80.96,113.31,81.02,114.97z"/>
		<path class="st34" d="M49.89,112.31c-0.93-0.02-1.52-0.65-2.16-1.2c-2.04-1.38-3.79-3.18-5.97-4.38c-1.75-0.69-2.62-2.38-3.98-3.5
			c-0.52-1.23,0.69-1.5,1.22-2.12c0.55-0.64,1.26-1.13,1.95-1.61c0.51-0.34,0.97-0.82,1.67-0.67c1.88,0.51,2.13,1.84,1.75,3.48
			c-0.09,0.09-0.18,0.18-0.28,0.27c0.12-0.09,0.21-0.21,0.33-0.31c1.42-0.73,2.5-0.09,3.49,0.86c0.52,0.5,0.94,1.2,1.8,0.95
			c1.47-0.43,2.33,0.3,3.03,1.44c0.08,1.29-0.04,2.51-1.11,3.43C51.05,110.06,50.47,111.19,49.89,112.31z"/>
		<path class="st35" d="M51.63,108.94c0.28-1.17,0.56-2.33,0.84-3.5c-0.05-0.42,0.19-0.57,0.56-0.59c0.21,0.07,0.51,0.21,0.49,0.36
			c-0.4,2.3,1.28,2.42,2.81,3.06c2.74,1.15,5.7,1.22,8.47,2.12c0.48,0.15,0.99,0.19,1.17,0.77c0.19,0.71,0.17,1.41-0.03,2.12
			c-3.67,1.46-6.84-0.33-10.03-1.67C54.37,110.95,52.59,110.58,51.63,108.94z"/>
		<path class="st36" d="M66.03,114.16c0.23,1.01,0.47,2.02,0.7,3.03c-0.39-0.01-0.78-0.02-1.16-0.03
			C65.72,116.16,65.88,115.16,66.03,114.16z"/>
		<path class="st37" d="M41.32,99.85c-1.22,1.08-2.76,1.83-3.54,3.38c-0.15-0.01-0.3-0.01-0.44-0.02c-0.56-2.23-2.29-3.73-3.47-5.57
			c-1.65-2.56-3.61-5-3.5-8.31c0.01-0.22,0.01-0.45,0.02-0.67c0.22-1.15,1.33-1,2.06-1.4c0.71-0.25,1.41-0.61,2.18-0.24
			c-0.5,2.04,0.12,3.83,0.84,5.75c0.27,0.71,0.31,1.4,0.96,2.01c1.09,1.02,2.39,1.93,2.72,3.52C39.41,99.52,40.79,99.07,41.32,99.85
			z"/>
		<path class="st38" d="M41.76,106.74c2.64,0.57,4.31,2.47,5.97,4.38C45.2,110.39,43.57,108.45,41.76,106.74z"/>
		<path class="st39" d="M87.61,98.99c0.94,0.67,2.42,0.38,3.02,1.67c0.68,1.13,0.05,1.98-0.72,2.63c-1.56,1.32-3.47,2.46-5.17,3.16
			c-1.84,0.75-3.55,2.44-5.83,2.11c0,0-0.02-0.01-0.02-0.01c-1.07-0.73-1.28-2.08-2.11-2.99c-2.67-3.71-5.76-7.01-9.3-9.9
			c-2.35-1.91-4.61-3.89-6.24-6.53c-2.01-3.25-1.84-6.47,0.7-9.55c0.71-0.59,1.14-1.4,1.65-2.15c0.64-0.75,1.39-1.31,2.4-1.42
			c1.76,0.2,0.61,1.46,0.81,2.23c-0.34,0.4-0.48,0.86-0.44,1.38c-1.64,4.76-0.47,8.86,3.24,12c3.75,3.18,8.44,3.81,12.93,5.02
			C84.35,97.14,86.44,97.07,87.61,98.99z"/>
		<path class="st40" d="M87.61,98.99c-3.81-1.96-8.13-2.19-12.11-3.56c-5.04-1.73-10.2-5.3-10.34-10.42
			c-0.05-1.88-0.34-3.85,1.21-5.39c0.38,2.5,0.47,4.97,2.47,7.05c2.01,2.1,4.21,3.14,7.01,3.13c5.03-0.02,10.04-0.83,15.08-0.42
			c1.37,0.11,2.7,0.33,3.97,0.86c-0.73,1.9-2.14,3.39-3.12,5.14C90.4,96.62,89.67,98.58,87.61,98.99z"/>
		<path class="st41" d="M66.8,78.25c-0.9-0.33,0.56-1.82-0.92-1.86c-0.9-0.86-2.08-0.57-3.13-0.76c-0.74-0.13-1.58,0.1-2.1-0.68
			c0.88-1.54,2.47-0.58,3.65-1.05c1.07-0.28,2.02,0.56,3.08,0.34c0.42-0.04,0.84-0.04,1.2,0.25c0.13,0.62,0.26,1.25,0.39,1.87
			c-0.51,0.31-0.41,0.82-0.43,1.29C67.57,76.75,67.18,77.46,66.8,78.25z"/>
		<path class="st42" d="M81.14,59.72c1.34,0.92,0.61,2.34,0.79,3.51c0.18,1.18,0.06,2.41,0.07,3.62c-0.85-0.12-0.9-0.74-0.9-1.41
			C81.12,63.53,81.12,61.62,81.14,59.72z"/>
		<path class="st43" d="M68.57,74.49c-0.45,0-0.9,0.01-1.36,0.01c-0.26-0.17-0.41-0.43-0.54-0.7c-0.63-1.34-1.08-2.77-2.13-3.88
			c-3.26-4.34-7.65-4.7-12.43-3.45c-2.03,0.53-3.92,1.44-5.73,2.49c-0.62,0.36-1.19,0.82-1.97,0.81c-0.71-0.19-1.33-0.12-2.04,0.23
			c-1.98,0.98-4.95-0.93-4.96-3.11c-0.01-1.43,1.15-1.16,1.95-1.33c0.08-0.18,0.05-0.3-0.05-0.42c-0.58-0.73-2.13-1.24-1.43-2.3
			c0.89-1.36,2.63-0.89,3.94-0.56c1.13,0.28,2.15,0.72,3.29,0.19c2.47-0.19,4.98,0.28,7.43-0.38c2.11-0.64,4.3,0.06,6.42-0.39
			c0.55,0.12,1.1,0.3,1.66,0.35c4.9,0.45,8.08,3.8,8.31,8.77c0.02,0.47-0.19,1.04,0.45,1.3C69.46,73.02,68.92,73.72,68.57,74.49z"/>
		<path class="st44" d="M45.12,62.46c-0.44,1.51-2.02,1.11-2.42,0.72c-1.17-1.16-2.5-0.11-3.64-0.62c-0.34-0.15-0.75-0.01-0.94,0.33
			c-0.29,0.52,0.19,0.77,0.5,1.03c0.38,0.32,0.86,0.53,1.21,0.88c0.33,0.31,0.95,0.58,0.61,1.2c-0.33,0.6-0.81,0.74-1.4,0.23
			c-0.35-0.3-0.82-0.38-1.12,0.08c-0.25,0.39-0.12,0.8,0.1,1.21c1.24,2.28,2.58,2.8,4.79,1.56c0.84-0.47,0.96,0.32,1.44,0.4
			c0.17,1.94-1.75,1.64-2.62,2.48c-2.77,1.11-5.36,2.77-8.51,2.7c-0.92-0.02-1.86,0.24-2.71-0.32c-0.38-2.23-0.19-4.45,0.27-6.65
			c0.23-1.11,0.21-2.36,1.46-2.93c0.7-0.32,0.16-0.68,0.11-1.03c-0.41-3.15-0.14-3.46,3.01-3.48c0.93,0.19,1.85,0.39,2.78,0.58
			c1.19,0.37,2.53,0.05,3.64,0.79C42.69,62.51,44.08,61.76,45.12,62.46z"/>
		<path class="st45" d="M35.28,60.24c-0.33,0.14-0.64,0.33-0.99,0.42c-0.64,0.17-1.56-0.02-1.73,0.84
			c-0.29,1.43,0.29,2.45,1.64,3.12c-4.57,0.96-2.69,4.89-3.55,7.53c-0.38,1.17,1.31,0.34,1.72,1.23c-0.42,0.72-1.52,0.05-1.97,0.75
			c-0.13,0.15-0.27,0.15-0.41,0.02c-0.65-0.57-1.48-0.34-2.22-0.47c0.44-3.74,0.86-7.5,2.33-11.01c0.51-1.22-0.14-2.81,1.25-3.72
			c0.3,0.01,0.59,0.02,0.89,0.03C33.26,59.4,34.27,59.82,35.28,60.24z"/>
		<path class="st46" d="M58.98,61.69c-2.13,0.34-4.27,0.45-6.42,0.39C54.64,61.04,56.84,61.8,58.98,61.69z"/>
		<path class="st47" d="M41.7,61.62c-1.3,0.13-2.51-0.17-3.64-0.79C39.29,60.99,40.79,59.93,41.7,61.62z"/>
		<path class="st48" d="M30,74.14c0.14,0.05,0.27,0.05,0.41-0.02c2.78,0.16,5.5-0.02,8.06-1.27c1.02-0.5,1.99-1.11,3.13-1.28
			c0.45,1.28-0.6,1.54-1.36,2.01c-0.31,0.19-0.64,0.4-0.56,0.82c0.08,0.43,0.51,0.52,0.85,0.5c1.47-0.07,2.73,0.87,4.18,0.85
			c1.02-0.02,1.55,0.59,1.95,1.42c0.23,0.86-0.27,1.44-0.77,2.02c-2.77,3.46-6.71,5.45-10.16,8.05c-0.3,0.23-0.65,0.28-0.99,0.06
			c-0.77-0.21-1.42,0.31-2.14,0.36c-1.8,0.72-2.99,0.2-3.5-1.73c-1.1-3.47-1.33-7.04-1.3-10.65C27.81,73.37,29.28,74.55,30,74.14z"
			/>
		<path class="st49" d="M29.1,85.93c0.72,1.48,1.92,1.99,3.5,1.73c-0.54,0.75-1.55,0.49-2.2,1.01
			C29.04,88.19,29.26,86.97,29.1,85.93z"/>
		<path class="st50" d="M60.63,75.02c1.78,0.08,3.57-0.04,5.31,0.45c1.18,0.33-0.35,0.59-0.06,0.92c-0.64,0.42-1.29,0.84-1.93,1.27
			c-1.04,0.87-2.44,1.19-3.41,2.18c-3.9,4.9-3.58,12.42,0.83,18.02c1.85,2.35,3.18,4.97,4.16,7.78c-0.02,1.12-0.18,2.14,1.38,2.65
			c1.11,0.36,0.31,1.27-0.13,1.9c-0.54,0.1-0.51,0.66-0.79,0.97c-4-0.74-7.95-1.65-11.82-2.91c-1.21-0.39-2.11-0.74-0.95-2.15
			c0.3-0.37,0.14-0.82-0.31-1.09c-0.85-1.14-0.06-2.3-0.07-3.46c0.16-0.93,0.37-1.85,0.72-2.72c0.84-2.43,0.87-4.86-0.05-7.29
			c-0.36-2.5-0.84-5-0.68-7.52c0.25-3.93,1.9-7.07,5.58-8.86C59.1,74.82,59.85,74.44,60.63,75.02z"/>
		<path class="st51" d="M66.77,110.18c0.13-0.91,0.33-1.67-1.09-1.9c-1.42-0.23-0.38-1.54-0.59-2.33c1.69,1.94,3.78,1.31,5.83,0.9
			c2.12-0.43,4.15-1.22,6.31-1.42c0.88,0.87,1.31,1.98,1.66,3.13C74.95,109.8,70.94,110.61,66.77,110.18z"/>
		<path class="st52" d="M34.73,87.3c3.63-2.74,7.74-4.87,10.8-8.36c0.74,1.21-0.23,1.89-0.91,2.52c-1.43,1.32-2.61,2.84-3.89,4.28
			c-0.66,0.75-0.75,1.32,0.1,1.94c0.46,0.34,0.83,0.79,1.16,1.26c0.98,1.35,1.92,2.83,3.66,0.81c0.11-0.13,0.4,0.02,0.54,0.2
			c0.43,1.47-0.32,2.75-0.65,4.1c-0.69,1.81-1.38,3.63-3.06,4.81c-0.39,0.33-0.78,0.66-1.17,0.99c-1.4-0.04-2.64,0.19-2.91-2.04
			c-0.13-1.07-1.55-2.43-2.96-3.11c-0.85-0.41-1.64-0.75-0.45-1.94c0.72-0.73-0.4-1.79-1.06-2.1c-1.68-0.8-1.12-1.52-0.01-2.02
			C34.65,88.31,34.36,87.66,34.73,87.3z"/>
		<path class="st53" d="M42.49,98.86c0.87-1.57,1.75-3.14,2.62-4.72c1.5,0.83,2.89,1.84,4.39,2.67c1.18,0.65,2.05,1.58,2.47,2.85
			c0.26,0.8,0.76,1.36,1.36,1.88c-0.14,1.15-0.29,2.31-0.43,3.47c-0.14,0.14-0.28,0.29-0.43,0.43c-0.94-0.36-1.63-1.74-2.96-0.56
			c-0.46,0.41-1.15-0.16-1.42-0.67c-0.84-1.6-2.21-1.94-3.82-1.81l0,0C43.9,101.11,43.7,99.73,42.49,98.86z"/>
		<path class="st53" d="M44.27,102.41c-0.12,0.51,0.31,1.23-0.42,1.48c-0.4,0.13-0.58-0.38-0.65-0.69
			C42.99,102.22,43.78,102.5,44.27,102.41C44.27,102.41,44.27,102.41,44.27,102.41z"/>
		<path class="st54" d="M77.24,105.42c-3.32,1.82-6.99,2.23-10.66,2.57c-1.31,0.12-0.77-1.51-1.49-2.05
			c-0.85-2.83-2.4-5.24-4.12-7.63c-3.46-4.79-6.17-13.71-0.73-18.96c1.67-0.62,1.67-0.62,2.16,0.38c-2.88,4-2.69,7.26,0.87,11.27
			c1.7,1.92,3.67,3.57,5.7,5.18C72.22,98.76,74.98,101.89,77.24,105.42z"/>
		<path class="st55" d="M62.4,79.74c-0.54-1.12-1.49,0.01-2.16-0.38c1.22-0.6,2.09-1.97,3.71-1.7
			C63.86,78.67,63.14,79.21,62.4,79.74z"/>
		<path class="st56" d="M53.33,101.54c-0.58-0.09-1.53,0.26-1.59-0.62c-0.2-2.9-2.6-3.62-4.51-4.86c-0.81-0.52-1.85-0.8-2.11-1.92
			c0.3-1.43,0.6-2.87,0.9-4.3c-0.2-4.18,1.96-7.58,3.68-11.11c1.29-2.65,3.36-4.58,6.18-5.39c2.98-0.86,6.05-1.4,8.78,0.87
			c-1.21,0.91-2.8-0.09-4.01,0.8c-4.53,1.18-7.22,4.55-7.17,9.16c0.03,2.45,0.27,4.9,0.41,7.35c0.58,2.48,0.59,4.95-0.01,7.43
			C53.69,99.82,53.51,100.68,53.33,101.54z"/>
		<path class="st57" d="M64.64,74.22c-3.12-1.03-6.22-1.46-9.39-0.04c-3.99,1.78-5.68,5.29-7.04,9.06c-0.79,2.18-1.47,4.4-2.21,6.61
			c-0.07,0.03-0.15,0.04-0.19,0.09c-1.77,2.25-2.15,2.22-4.02-0.33c-0.21-0.29-0.33-0.73-0.6-0.87c-2.88-1.5-1.4-2.84,0.02-4.37
			c1.07-1.15,2.02-2.4,3.24-3.42c0.63-0.53,1.1-1.13,1.09-2c0.34-0.55,0.68-1.1,1.02-1.64c2.59-2.86,4.32-6.52,8.19-8.17
			c3.47-1.49,6.53-0.91,9.48,1.16c1.25,0.89,1.83,2.36,2.93,3.39c0.02,0.28,0.04,0.56,0.06,0.83
			C66.22,75.66,65.56,73.79,64.64,74.22z"/>
		<path class="st58" d="M64.08,70.73c-4.1-3.09-9.45-2.34-12.84,1.63c-1.47,1.72-2.6,3.8-4.69,4.94c-1.82-1.26-3.94-1.52-6.05-1.79
			c-0.71-0.09-1.56,0.05-1.74-0.88c-0.16-0.86,0.61-1.36,1.21-1.57c0.8-0.3,1.45-0.57,1.63-1.48c0.75-0.88,2.02-1.1,2.68-2.1
			c3.53-1.84,6.98-3.93,11.12-4.15c4.04-0.22,7.48,0.89,9.72,4.55C65.1,70.56,64.89,71,64.08,70.73z"/>
		<path class="st59" d="M64.08,70.73c0.49-0.11,0.77-0.46,1.02-0.86c1.1,1.04,1.42,2.5,2.05,3.79
			C65.62,73.22,65.23,71.58,64.08,70.73z"/>
		<path class="st60" d="M53.87,98.95c0-2.48,0-4.95,0.01-7.43c0.23,0.14,0.65,0.3,0.65,0.43C54.45,94.3,55.62,96.77,53.87,98.95z"/>
		<path class="st48" d="M43.94,74.63c-0.76-0.03-1.55,0.02-1.63-0.8c-0.08-0.87,0.69-0.92,1.34-0.93c0.68-0.01,1.34,0.16,1.38,0.97
			C45.08,74.75,44.31,74.53,43.94,74.63z"/>
		<path class="st48" d="M47.66,73.99c-0.12,0.57-0.53,0.64-0.97,0.58c-0.52-0.06-0.68-0.44-0.65-0.9c0.02-0.38,0.19-0.71,0.64-0.58
			C47.16,73.22,47.63,73.41,47.66,73.99z"/>
		<path class="st48" d="M48.26,71.88c0.09,0.35-0.07,0.54-0.41,0.55c-0.44,0.02-0.9,0-1.08-0.48c-0.17-0.45,0.21-0.63,0.56-0.72
			C47.84,71.1,48.1,71.44,48.26,71.88z"/>
	</g>
</g>
</svg>
